<?xml version="1.0" encoding="utf-8"?>
<!DOCTYPE svg PUBLIC "-//W3C//DTD SVG 1.1//EN" "http://www.w3.org/Graphics/SVG/1.1/DTD/svg11.dtd">
<svg version="1.1"
 xmlns="http://www.w3.org/2000/svg" 
 xmlns:xlink="http://www.w3.org/1999/xlink" 
 viewBox="-250 0 1300 1300"
 class="svg-content"> 
 <defs>   
    <style type="text/css">
      @font-face {
        font-family: GothamRounded;
        src: url('gotham.otf');
      }
      text {
        font-family: GothamRounded, sans-serif;
        font-size: 300px;
        fill: #FFF;
      }
      rect {
        width: 360px;
        height: 360px;
      }

    </style>
    <g id="c">
      <rect rx="60" y="30" x="30" width="360" height="360">
        <animate begin="21.5s" attributeName="rx" dur="6s" to="50%" fill="freeze"/>
      </rect>
    </g>
    <g id="text1">
       <text x="95" y="318">C</text>
    </g>
    <g id="text2">
       <text>
        <tspan x="135" y="339" font-size="200px">HORA</tspan> 
        <tspan x="320" y="469" font-size="100px">DEL</tspan>
        <tspan x="120" y="639" font-size="145px">CÓDIGO</tspan> 
      </text>
    </g>
    <g id="code">
      <g id="o">
       <rect x="415" y="30" rx="60" fill="black"/>
       <text x="480" y="318">O</text>
      </g>
      <g id="d">
       <rect x="30" y="415" rx="60" fill="black"/>
       <text x="95" y="700">D</text>
      </g>
     <g id="e">
       <rect x="415" y="415" rx="60" fill="black"/>
       <text x="480" y="700">E</text>
     </g>
    </g> 
	<g id="logoCuu">
	  <g id="parte1">		
			<path id="x1" fill="black" d="M443.32,128.325c-1.873-1.457-5.794-3.573-8.638-4.788c-2.845-1.179-6.765-4.301-8.673-6.903
			c-1.908-2.636-5.585-7.111-8.222-9.956c-2.602-2.879-6.487-6.175-8.638-7.389c-2.15-1.18-6.244-3.712-9.089-5.62
			c-2.879-1.908-6.973-5.412-9.124-7.805c-2.116-2.359-5.065-7.805-6.487-12.107s-4.718-9.366-7.354-11.24
			c-2.636-1.908-4.752-3.469-4.752-3.469L242.325,51L280.9,284.084h85.477l10.754-14.986l-20.71-20.745l90.403-115.588
			C445.853,130.961,444.569,129.227,443.32,128.325z"/>
	  </g>
	  <g id="parte2">
			<path id="x2" fill="black" d="M552.039,257.581c-1.179-3.816-2.532-10.477-3.018-14.743v-2.602v-2.602
			c0.485-6.175-0.486-13.009-2.186-15.125c-1.665-2.151-4.787-6.453-6.903-9.54c-2.151-3.087-4.476-7.562-5.204-9.956
			s-2.081-7.077-3.018-10.407c-0.972-3.33-3.296-7.597-5.203-9.505c-1.908-1.908-4.822-5.03-6.522-6.938
			c-1.63-1.908-4.752-4.614-6.903-6.071c-2.15-1.422-5.862-3.747-8.222-5.169c-2.394-1.422-7.458-4.961-11.274-7.805
			c-3.815-2.845-9.436-7.146-12.558-9.505c-3.087-2.394-6.175-6.487-6.903-9.124c-0.243-0.902-0.729-1.908-1.249-2.879
			l-90.438,115.588l60.431,60.396l18.212-3.539v-28.758l94.149-14.015C554.155,263.27,552.906,260.286,552.039,257.581z"/>
	  </g>
	  <g id="parte3">
			<path id="x3" fill="black" d="M482.485,383.818l14.882,10.893l20.884-20.884l120.479,95.329l55.504-101.642c0,0-3.503-1.18-7.771-2.602
			c-4.302-1.422-9.748-4.752-12.106-7.354c-2.394-2.637-7.875-5.724-12.142-6.938c-4.302-1.18-8.776-4.302-9.956-6.904
			c-1.215-2.636-4.892-4.371-8.222-3.92c-3.33,0.486-8.604-0.277-11.69-1.734c-3.088-1.422-7.598-4.544-9.956-6.903
			c-2.394-2.394-6.487-7.077-9.089-10.407c-2.637-3.33-7.32-6.625-10.407-7.354c-3.088-0.729-6.418-1.874-7.354-2.602
			c-0.972-0.694-1.734-1.284-1.734-1.284s-1.77-1.977-3.886-4.336c-2.15-2.394-5.272-7.077-6.938-10.407s-4.024-7.216-5.204-8.638
			c-0.312-0.417-0.729-1.041-1.145-1.839l-94.149,14.05V383.818z"/>
	  </g>
	  <g id="parte4">
			<path id="x4" fill="black" d="M600.883,633.311c3.331-4.268,8.396-8.949,11.24-10.373c2.845-1.422,7.909-2.428,11.274-2.186
			c3.33,0.244,8.95,1.805,12.523,3.469c3.572,1.666,10.615,4.615,15.61,6.488c4.995,1.908,9.089,3.469,9.089,3.469L633.77,506.031
			l5.967-10.893l-120.479-95.363l-60.465,60.464l3.053,18.213h29.278l22.236,167.936c3.539-0.971,7.806-1.561,10.442-1.387
			c3.33,0.242,8.603,0.623,11.69,0.867c3.088,0.242,9.332,1.422,13.876,2.602c4.51,1.18,10.164,3.711,12.523,5.619
			c2.394,1.908,5.897,4.857,7.806,6.486c1.907,1.666,5.203,2.082,7.354,0.867c2.151-1.178,7.008-6.244,10.823-11.238
			C591.69,645.209,597.519,637.611,600.883,633.311z"/>
	  </g>
	  <g id="parte5">
			<path id="x5" fill="black" d="M468.991,496.734h-85.477l-10.407,15.369l20.398,20.396L278.333,692.145
			c0.278,0.035,0.555,0.105,0.798,0.174c4.788,0.938,10.824,2.879,13.425,4.303c2.636,1.457,4.96,4.543,5.204,6.938
			c0.243,2.393,1.422,5.689,2.602,7.354c1.18,1.666,2.151,4.787,2.151,6.939c0,2.15,2.949,5.271,6.522,6.938
			c3.573,1.664,7.84,5.551,9.505,8.637c1.665,3.123,4.787,8.188,6.938,11.275c2.116,3.088,3.885,5.619,3.885,5.619
			s1.18-0.971,2.602-2.15c1.422-1.215,6.869-1.77,12.142-1.318c5.204,0.486,12.419-1.664,15.992-4.752s7.285-7.598,8.222-9.957
			c0.971-2.393,1.734-7.25,1.734-10.822c0-3.574,0.971-6.904,2.151-7.391c1.214-0.449,3.92-3.191,6.071-6.035
			s4.475-7.354,5.204-9.957c0.729-2.635,0.729-7.111,0-9.955s-1.492-7.146-1.735-9.539c-0.243-2.359,1.908-5.1,4.788-6.037
			c2.845-0.971,7.528-2.533,10.372-3.469c2.845-0.971,5.203-3.678,5.203-6.07c0-2.395,1.146-5.898,2.568-7.807
			c1.457-1.908,2.809-6.764,3.053-10.822c0.242-4.025,1.803-7.527,3.469-7.771c1.664-0.242,4.405-1.631,6.036-3.053
			c1.699-1.422,5.585-1.213,8.672,0.451c3.088,1.666,8.742,4.406,12.559,6.07c3.815,1.631,10.441,5.551,14.708,8.639
			c4.302,3.088,10.72,7.008,14.293,8.672c3.572,1.666,8.256,4.787,10.406,6.904c2.116,2.15,7.008,2.74,10.824,1.318
			c0.763-0.277,1.63-0.555,2.532-0.799L468.991,496.734z"/>
	  </g>
	  <g id="parte6">
			<path id="x6" fill="black" d="M311.636,471.932l-18.247,2.531v29.799l-148.058,13.98c1.596,2.256,2.81,4.857,3.295,7.285
			c0.937,4.996,4.649,11.83,8.222,15.16c3.573,3.33,6.279,8.984,6.036,12.559c-0.243,3.572,0.174,8.637,0.867,11.238
			c0.729,2.637-0.451,7.701-2.602,11.275c-2.151,3.572-1.145,9.99,2.186,14.258c3.33,4.301,7.805,8.395,9.956,9.123
			c2.151,0.693,3.885,1.283,3.885,1.283s2.741-0.59,6.071-1.283c3.33-0.729,8.014-1.109,10.373-0.902
			c2.394,0.242,5.308,2.395,6.521,4.787c1.18,2.395,6.036,5.689,10.824,7.355c4.752,1.664,9.228,6.521,9.956,10.822
			c0.694,4.268,3.642,10.303,6.487,13.426c2.845,3.088,5.585,13.426,6.071,22.93c0.451,9.541,1.041,19.67,1.284,22.514
			c0.243,2.846,3.539,6.383,7.354,7.807c3.607,1.352,10.06,3.156,14.778,4.162l115.172-159.68L311.636,471.932z"/>
	  </g>	
	  <g id="parte7">
			<path id="x7" fill="black" d="M240.382,410.391l-86.448-61.644c-0.035,0.139-0.069,0.277-0.104,0.382
			c-0.971,3.816-1.353,10.233-0.867,14.292c0.486,4.024,1.076,14.952,1.284,24.249c0.243,9.297,0.451,20.571,0.451,25.116
			c0,4.51,0.589,11.135,1.283,14.709c0.729,3.572,2.29,9.4,3.469,12.973c1.179,3.574,0.035,9.229-2.602,12.559
			c-2.602,3.33-7.875,4.51-11.69,2.602c-3.781-1.908-10.025-3.852-13.841-4.336c-3.816-0.451-9.262-0.277-12.107,0.451
			c-2.879,0.729-7.146,2.844-9.54,4.752s-2.186,10.477,0.417,19.045c2.636,8.568,8.083,17.137,12.142,19.045
			c2.081,0.971,4.128,2.949,5.828,5.273l148.058-13.98V400.4l-15.298-10.442L240.382,410.391z"/>
	  </g>
	  <g id="parte8">	
			<path id="x8" fill="black" d="M198.684,118.16l-64.107-3.851c0,0-2.324,11.378-5.169,25.29c-2.879,13.911-3.053,27.821-0.416,30.943
			c2.602,3.087,7.077,8.326,9.956,11.691c2.844,3.33,7.909,7.007,11.24,8.187c3.33,1.214,7.632,4.545,9.54,7.389
			c1.908,2.845,3.469,12.801,3.469,22.063c0,9.297-0.417,22.722-0.867,29.869c-0.486,7.146-2.255,21.785-3.92,32.47
			c-1.665,10.719-4.197,22.826-5.62,26.85c-1.388,3.92-3.261,10.06-4.232,13.911l86.448,61.645l60.431-60.43l-3.92-18.212h-28.412
			L224.528,72.89l-24.109-1.492L198.684,118.16z"/>
	  </g>
	 </g>
   <g id="circle_blue">
      <linearGradient id="grad3" x1="0%" y1="120%" x2="100%" y2="0%">
        <stop offset="0%" style="stop-color:rgb(75,192,207);stop-opacity:1" />
        <stop offset="120%" style="stop-color:rgb(255,255,255);stop-opacity:1" />
      </linearGradient>
      <rect fill="url(#grad3)" rx="600" y="30" x="30" width="360" height="360"/>
   </g> 
   <g id="play_logo">
    <a xlink:href="https://www.google.com">
       <polygon id="play1" fill="#FFFFFF" stroke="#000000" stroke-miterlimit="10" points="319.027,557.811 327.113,245.19 554.973,407.498 "/>
   </a>
   </g>
 </defs>	
 <g id="anima_logoCuu">
    <use xlink:href="#logoCuu" opacity="0">      
      <animate attributeName="opacity"
        from="0"
        to="1"
        begin="2s"
        dur="1s"
        fill="freeze"
        id="opa0"/>
        <animate attributeName="opacity"
        from="1"
        to="0"
        begin="11s"
        dur="3s"
        fill="freeze"
        id="opa1"/>
    </use>
    <animate xlink:href="#x1" attributeName="fill" from="black" to="#006aa6" dur="0.5s" begin="4s" fill="freeze"/>
    <animate xlink:href="#x1" attributeName="fill" from="#006aa6" to="black" dur="0.5s" begin="7.5s" fill="freeze"/>
    <animate xlink:href="#x2" attributeName="fill" from="black" to="#00a49e" dur="0.5s" begin="4.3s" fill="freeze"/>
    <animate xlink:href="#x2" attributeName="fill" from="#00a49e" to="black" dur="0.5s" begin="7.8s" fill="freeze"/>
    <animate xlink:href="#x3" attributeName="fill" from="black" to="#75b53b" dur="0.5s" begin="4.6s" fill="freeze"/>
    <animate xlink:href="#x3" attributeName="fill" from="#75b53b" to="black" dur="0.5s" begin="8.2s" fill="freeze"/>
    <animate xlink:href="#x4" attributeName="fill" from="black" to="#fece22" dur="0.5s" begin="4.9s" fill="freeze"/>
    <animate xlink:href="#x4" attributeName="fill" from="#fece22" to="black" dur="0.5s" begin="8.5s" fill="freeze"/>
    <animate xlink:href="#x5" attributeName="fill" from="black" to="#ef7f2d" dur="0.5s" begin="5.2s" fill="freeze"/>
    <animate xlink:href="#x5" attributeName="fill" from="#ef7f2d" to="black" dur="0.5s" begin="8.8s" fill="freeze"/>
    <animate xlink:href="#x6" attributeName="fill" from="black" to="#e5322d" dur="0.5s" begin="5.5s" fill="freeze"/>
    <animate xlink:href="#x6" attributeName="fill" from="#e5322d" to="black" dur="0.5s" begin="9.1s" fill="freeze"/>
    <animate xlink:href="#x7" attributeName="fill" from="black" to="#cb2881" dur="0.5s" begin="5.8s" fill="freeze"/>
    <animate xlink:href="#x7" attributeName="fill" from="#cb2881" to="black" dur="0.5s" begin="9.4s" fill="freeze"/>
    <animate xlink:href="#x8" attributeName="fill" from="black" to="#294376" dur="0.5s" begin="6.1s" fill="freeze"/>
    <animate xlink:href="#x8" attributeName="fill" from="#294376" to="black" dur="0.5s" begin="9.7s" fill="freeze"/>
</g>
  <g id="anima_code">
    <use xlink:href="#code" opacity="0">
      <animate 
        attributeName="opacity"
        from="0"
        to="1"
        begin="14s"
        dur="4s"
        fill="freeze"/>
      <animate 
        attributeName="opacity"
        from="1"
        to="0"
        begin="17"
        dur="1s"
        fill="freeze"/>
    </use>
  </g>
  <g id="anima_c">
    <use xlink:href="#c" opacity="0">
      <animate 
        attributeName="opacity"
        from="0"
        to="1"
        begin="14s"
        dur="4s"
        fill="freeze"/>
      <animate 
        xlink:href="#c"
        attributeName="fill"
        from="black"
        to="4bc0cf"
        begin="17s"
        dur="2s"
        fill="freeze"/>
        <animateTransform 
        attributeName="transform"
        type="scale"
        from="1"
        to="2"
        begin="17"
        dur="1s" fill="freeze" />
    </use>  
  </g>
  <g id="anima_text1">
    <use xlink:href="#text1" opacity="0">
      <animate 
        attributeName="opacity"
        from="0"
        to="1"
        begin="14"
        dur=".1s" fill="freeze" />
      <animate 
        attributeName="opacity"
        from="1"
        to="0"
        begin="17"
        dur=".1s" fill="freeze" />
    </use>
  </g>
  <g id="anima_text2">
    <use xlink:href="#text2" opacity="0">
      <animate 
        attributeName="opacity"
        from="0"
        to="1"
        begin="17.5"
        dur="3s" fill="freeze" />
      <animate 
        attributeName="opacity"
        from="1"
        to="0"
        begin="24.5"
        dur="1s" fill="freeze" />
    </use>
  </g>
  <g id="anima_circle">
    <use xlink:href="#circle_blue" opacity="0">
        <animate attributeName="opacity"
        from="0"
        to="1"
        begin="23"
        dur="500ms"
        fill="freeze"
        />
        <animateTransform 
        attributeName="transform"
        type="scale"
        from="1"
        to="2"
        begin="6"
        dur="1s" fill="freeze" />
    </use> 
  </g> 
  <g id="anima_play">
    <use xlink:href="#play_logo" opacity="0">
        <animate attributeName="opacity"
        from="0"
        to="1"
        begin="23"
        dur="4s"
        fill="freeze"
        />
    </use>
  </g>
</svg>